<?xml version="1.0" encoding="UTF-8"?><svg id="Layer_1" xmlns="http://www.w3.org/2000/svg" viewBox="0 0 58.36 61.77"><defs><style>.cls-1{fill:#fff;}</style></defs><path class="cls-1" d="M46.36,0H12C5.4,0,0,5.4,0,12V49.77c0,6.6,5.4,12,12,12H46.36c6.6,0,12-5.4,12-12V12c0-6.6-5.4-12-12-12Zm3.76,41.12c0,3.33-2.73,6.06-6.06,6.06H14.31c-3.33,0-6.06-2.73-6.06-6.06V11.37c0-3.33,2.73-6.06,6.06-6.06h29.75c3.33,0,6.06,2.73,6.06,6.06v29.75Z"/><path class="cls-1" d="M35.15,28.22c.2,0,.37,.08,.52,.23l1.41,1.53c-.78,.97-1.74,1.71-2.88,2.22s-2.51,.77-4.11,.77c-1.43,0-2.71-.24-3.85-.73s-2.12-1.17-2.92-2.04c-.81-.87-1.43-1.91-1.86-3.12-.43-1.21-.65-2.53-.65-3.95s.23-2.77,.69-3.97c.46-1.2,1.11-2.24,1.95-3.11s1.84-1.55,3-2.03c1.16-.48,2.45-.73,3.86-.73s2.65,.23,3.73,.69c1.09,.46,2.01,1.07,2.78,1.81l-1.2,1.66c-.07,.11-.16,.2-.27,.28-.11,.08-.26,.12-.46,.12-.13,0-.27-.04-.41-.11-.14-.08-.3-.17-.47-.28s-.36-.23-.59-.37-.48-.25-.77-.37c-.29-.11-.63-.2-1.02-.28-.39-.08-.83-.11-1.34-.11-.86,0-1.65,.15-2.36,.46-.71,.31-1.33,.75-1.84,1.33-.52,.58-.92,1.29-1.2,2.13-.28,.84-.43,1.8-.43,2.87s.15,2.05,.46,2.89c.31,.84,.72,1.55,1.24,2.13,.52,.58,1.14,1.02,1.85,1.32,.71,.31,1.47,.46,2.29,.46,.49,0,.93-.03,1.32-.08,.4-.05,.76-.14,1.09-.25,.33-.12,.65-.26,.95-.45,.3-.18,.59-.41,.89-.67,.09-.08,.18-.14,.28-.19,.1-.05,.2-.07,.31-.07Z"/></svg>